<svg width="24" height="24" viewBox="0 0 22 22" fill="none" xmlns="http://www.w3.org/2000/svg" xmlns:xlink="http://www.w3.org/1999/xlink">
	<desc>
			Created with Pixso.
	</desc>
	<defs/>
	<path id="Intersect" d="M5.27387 13.8523L6.77133 14.9078L6.23732 15.7518Q5.39308 15.2749 4.65854 14.6389Q3.33343 13.4918 2.49517 11.959Q2.25 11.5106 2.25 10.9999Q2.25 10.4893 2.49518 10.0409Q3.11069 8.91541 4.00094 7.98621Q4.88975 7.05847 5.98716 6.39441Q7.10266 5.71948 8.35437 5.36536Q9.64563 5 11 5Q12.2858 5 13.5164 5.32971Q14.6317 5.62854 15.6463 6.18347L15.1664 7.06079Q14.257 6.56348 13.2576 6.29565Q12.1541 6 11 6Q9.78437 6 8.62661 6.32751Q7.50483 6.6449 6.50486 7.25Q5.52046 7.8457 4.72303 8.67798Q3.92447 9.5116 3.37255 10.5208Q3.25 10.7448 3.25 11Q3.25 11.2551 3.37254 11.4791Q4.12428 12.8538 5.31306 13.8829Q5.97201 14.4534 6.72919 14.8811L6.48326 15.3165L6.19519 15.7251L4.69773 14.6697L5.27387 13.8523ZM17.7657 7.75085Q18.8084 8.76758 19.5048 10.041Q19.75 10.4894 19.75 11.0001Q19.75 11.5107 19.5048 11.9591Q18.8893 13.0846 17.9991 14.0138Q17.1103 14.9415 16.0128 15.6056Q14.8973 16.2805 13.6456 16.6346Q12.3544 17 11 17Q9.76737 17 8.58415 16.6967L8.83252 15.7279Q9.89353 16 11 16Q12.2156 16 13.3734 15.6725Q14.4952 15.3551 15.4951 14.75Q16.4795 14.1543 17.277 13.322Q18.0755 12.4884 18.6275 11.4792Q18.75 11.2552 18.75 11.0001Q18.75 10.745 18.6275 10.5209Q18.0029 9.37891 17.0676 8.46692L17.7657 7.75085ZM17.0959 8.46655L17.0676 8.46692C16.8671 8.27136 16.8632 7.96033 17.0587 7.75977C17.2541 7.55933 17.5652 7.55542 17.7657 7.75085L17.7661 7.77917L17.0959 8.46655ZM8.60849 16.6823L8.58415 16.6967C8.31292 16.6271 8.15446 16.3594 8.224 16.0881C8.29355 15.8169 8.56129 15.6584 8.83252 15.7279L8.84693 15.7523L8.60849 16.6823Z" fill="#1D1D1F" fill-opacity="1.000000" fill-rule="evenodd"/>
	<path id="Line" d="M4.09244 17.8424L17.8424 4.09241" stroke="#1D1D1F" stroke-opacity="1.000000" stroke-width="1.000000" stroke-linejoin="round" stroke-linecap="round"/>
	<path id="Ellipse 44" d="M8.25 11C8.25 9.4812 9.48122 8.25 11 8.25" stroke="#1D1D1F" stroke-opacity="1.000000" stroke-width="1.000000" stroke-linecap="round"/>
</svg>
