<svg width="24" height="24" viewBox="0 0 14.8333 13.7832" fill="none" xmlns="http://www.w3.org/2000/svg" xmlns:xlink="http://www.w3.org/1999/xlink">
	<desc>
			Created with Pixso.
	</desc>
	<defs/>
	<path id="Rectangle 74" d="M3.1326 13.0332C1.81673 13.0332 0.75 11.9664 0.75 10.6505C0.75 10.2456 0.853195 9.84741 1.04984 9.49341L5.17378 2.07031C5.53932 1.41235 6.17537 0.94812 6.91348 0.800415C7.24565 0.734009 7.58769 0.734009 7.91986 0.800415C8.65796 0.94812 9.29401 1.41235 9.65956 2.07031L13.7835 9.49341C13.9801 9.84741 14.0833 10.2456 14.0833 10.6505C14.0833 11.9664 13.0166 13.0332 11.7007 13.0332L3.1326 13.0332Z" stroke="#F2883D" stroke-opacity="1.000000" stroke-width="1.500000"/>
	<path id="Line" d="M7.41663 7.36646L7.41663 4.69983" stroke="#F2883D" stroke-opacity="1.000000" stroke-width="1.500000" stroke-linejoin="round" stroke-linecap="round"/>
	<path id="Line" d="M7.41663 9.69983L7.41663 9.36646" stroke="#F2883D" stroke-opacity="1.000000" stroke-width="1.500000" stroke-linejoin="round" stroke-linecap="round"/>
</svg>
