<svg width="24" height="24" viewBox="0 0 24 24" fill="none" xmlns="http://www.w3.org/2000/svg" xmlns:xlink="http://www.w3.org/1999/xlink">
	<desc>
			Created with Pixso.
	</desc>
	<defs>
		<clipPath id="clip1_765">
			<rect id="bell-ringing" width="24.000000" height="24.000000" fill="white" fill-opacity="0"/>
		</clipPath>
	</defs>
	<rect id="bell-ringing" width="24.000000" height="24.000000" fill="#FFFFFF" fill-opacity="0"/>
	<g clip-path="url(#clip1_765)">
		<path id="Vector" d="M10.5858 3.58569C10.9609 3.21069 11.4695 3 12 3C12.5305 3 13.0391 3.21069 13.4142 3.58569C13.7893 3.96094 14 4.46948 14 5C15.1484 5.54297 16.1274 6.38843 16.832 7.44531C17.5367 8.5022 17.9404 9.73096 18 11L18 14C18.0753 14.6218 18.2954 15.217 18.6428 15.738C18.9902 16.2593 19.4551 16.6914 20 17L4 17C4.54492 16.6914 5.00983 16.2593 5.35718 15.738C5.70459 15.217 5.92474 14.6218 6 14L6 11C6.05957 9.73096 6.46332 8.5022 7.16797 7.44531C7.87262 6.38843 8.85156 5.54297 10 5C10 4.46948 10.2107 3.96094 10.5858 3.58569Z" stroke="#F3F5FF" stroke-opacity="1.000000" stroke-width="1.500000" stroke-linejoin="round"/>
		<path id="Vector" d="M9 17L9 18C9 18.7957 9.31604 19.5586 9.87866 20.1213C10.4413 20.6838 11.2043 21 12 21C12.7957 21 13.5587 20.6838 14.1213 20.1213C14.684 19.5586 15 18.7957 15 18L15 17" stroke="#F3F5FF" stroke-opacity="1.000000" stroke-width="1.500000" stroke-linejoin="round" stroke-linecap="round"/>
	</g>
</svg>
