<svg width="159.940140" height="20.000000" viewBox="0 0 159.94 20" fill="none" xmlns="http://www.w3.org/2000/svg" xmlns:xlink="http://www.w3.org/1999/xlink">
	<desc>
			Created with Pixso.
	</desc>
	<defs>
		<clipPath id="clip1_1006">
			<rect id="Без названия (2)" width="20.000000" height="12.492837" transform="translate(0.000244 3.225098)" fill="white" fill-opacity="0"/>
		</clipPath>
		<clipPath id="clip1_1044">
			<rect id="Без названия (1)" width="20.000000" height="20.000000" transform="translate(28.000000 0.000000)" fill="white" fill-opacity="0"/>
		</clipPath>
		<clipPath id="clip1_1048">
			<rect id="Без названия (3)" width="20.000000" height="20.000000" transform="translate(56.000000 0.000000)" fill="white" fill-opacity="0"/>
		</clipPath>
		<clipPath id="clip1_1051">
			<rect id="Без названия (4)" width="20.000000" height="20.000000" transform="translate(84.000000 0.000000)" fill="white" fill-opacity="0"/>
		</clipPath>
		<clipPath id="clip1_1054">
			<rect id="Без названия" width="20.000000" height="20.000000" transform="translate(112.000000 0.000000)" fill="white" fill-opacity="0"/>
		</clipPath>
		<clipPath id="clip1_1059">
			<rect id="binance-usd-busd-logo" width="19.940140" height="20.000004" transform="translate(140.000000 0.000000)" fill="white" fill-opacity="0"/>
		</clipPath>
		<linearGradient id="paint_linear_1_1055_0" x1="122.000244" y1="0.000000" x2="122.000244" y2="20.000000" gradientUnits="userSpaceOnUse">
			<stop stop-color="#4A819F"/>
			<stop offset="1.000000" stop-color="#034681"/>
		</linearGradient>
	</defs>
	<rect id="Без названия (2)" width="20.000000" height="12.492837" transform="translate(0.000244 3.225098)" fill="#FFFFFF" fill-opacity="0"/>
	<g clip-path="url(#clip1_1006)">
		<mask id="mask1_1008" mask-type="alpha" maskUnits="userSpaceOnUse" x="0.000977" y="3.225098" width="20.000000" height="12.492920">
			<path id="Vector" d="M0.000976562 3.2251L20.001 3.2251L20.001 15.718L0.000976562 15.718L0.000976562 3.2251Z" fill="#000000" fill-opacity="1.000000" fill-rule="evenodd"/>
		</mask>
		<g mask="url(#mask1_1008)">
			<path id="Vector" d="M19.9617 15.0706C19.9617 15.4385 19.6613 15.739 19.2935 15.739L0.645813 15.739C0.277924 15.739 -0.0224609 15.4385 -0.0224609 15.0706L-0.0224609 3.91431C-0.0224609 3.54639 0.277924 3.24585 0.645813 3.24585L19.2935 3.24585C19.6614 3.24585 19.9618 3.54639 19.9618 3.91431L19.9617 15.0706Z" fill="#14477C" fill-opacity="1.000000" fill-rule="evenodd"/>
			<path id="Vector" d="M12.3666 13.0764L12.5505 13.073L12.7347 13.0615L12.9148 13.0352L13.0912 13.0051L13.2639 12.9639L13.4366 12.9189L13.6017 12.8586L13.767 12.7952L13.9245 12.7234L14.0784 12.6448L14.2288 12.5583L14.3752 12.4646L14.5179 12.3633L14.653 12.2581L14.7805 12.1455L14.908 12.0249L15.0246 11.9011L15.1374 11.7698L15.2461 11.6345L15.3475 11.4956L15.4376 11.3491L15.5278 11.1992L15.6028 11.0452L15.6779 10.8838L15.7418 10.7222L15.7982 10.5532L15.847 10.384L15.8881 10.2114L15.9183 10.031L15.9409 9.85474L15.9557 9.67065L15.9594 9.48682L15.9557 9.30249L15.9409 9.11865L15.9183 8.94214L15.8881 8.76587L15.847 8.59277L15.7982 8.42407L15.7418 8.25488L15.6779 8.09351L15.6028 7.93579L15.5278 7.78174L15.4376 7.63159L15.3475 7.48511L15.2461 7.34644L15.1374 7.21118L15.0246 7.07983L14.908 6.95581L14.7805 6.83936L14.653 6.72681L14.5179 6.61792L14.3752 6.52026L14.2288 6.42627L14.0784 6.34009L13.9245 6.26099L13.767 6.1897L13.6017 6.12598L13.4366 6.06958L13.2639 6.02075L13.0912 5.97949L12.9148 5.94946L12.7347 5.927L12.5505 5.91187L12.3666 5.9082L12.1826 5.91187L12.0026 5.927L11.8222 5.94946L11.6459 5.97949L11.4731 6.02075L11.3004 6.06958L11.135 6.12598L10.9737 6.1897L10.816 6.26099L10.662 6.34009L10.512 6.42627L10.3655 6.52026L10.2267 6.61792L10.0912 6.72681L9.95993 6.83936L9.83624 6.95581L9.71591 7.07983L9.60721 7.21118L9.49814 7.34644L9.4006 7.48511L9.30673 7.63159L9.22055 7.78174L9.14154 7.93579L9.07022 8.09351L9.00635 8.25488L8.95016 8.42407L8.90146 8.59277L8.85986 8.76587L8.83011 8.94214L8.8075 9.11865L8.79242 9.30249L8.78857 9.48682L8.79242 9.67065L8.8075 9.85474L8.83011 10.031L8.85986 10.2114L8.90146 10.384L8.95016 10.5532L9.00635 10.7222L9.07022 10.8838L9.14154 11.0452L9.22055 11.1992L9.30673 11.3491L9.4006 11.4956L9.49814 11.6345L9.60721 11.7698L9.71591 11.9011L9.83624 12.0249L9.95993 12.1455L10.0912 12.2581L10.2267 12.3633L10.3655 12.4646L10.512 12.5583L10.662 12.6448L10.816 12.7234L10.9737 12.7952L11.135 12.8586L11.3004 12.9189L11.4731 12.9639L11.6459 13.0051L11.8222 13.0352L12.0026 13.0615L12.1826 13.073L12.3666 13.0764Z" fill="#FBB230" fill-opacity="1.000000" fill-rule="evenodd"/>
			<path id="Vector" d="M7.57224 13.0764L7.7562 13.073L7.93625 13.0615L8.11664 13.0352L8.29285 13.0051L8.46576 12.9639L8.63864 12.9189L8.80365 12.8586L8.96497 12.7952L9.12277 12.7234L9.27664 12.6448L9.42679 12.5583L9.57321 12.4646L9.71201 12.3633L9.84747 12.2581L9.97882 12.1455L10.1024 12.0249L10.2228 11.9011L10.3318 11.7698L10.4406 11.6345L10.5381 11.4956L10.632 11.3491L10.7181 11.1992L10.7971 11.0452L10.8685 10.8838L10.9323 10.7222L10.9885 10.5532L11.0375 10.384L11.0788 10.2114L11.1086 10.031L11.1311 9.85474L11.1463 9.67065L11.1501 9.48682L11.1463 9.30249L11.1311 9.11865L11.1086 8.94214L11.0788 8.76587L11.0375 8.59277L10.9885 8.42407L10.9323 8.25488L10.8685 8.09351L10.7971 7.93579L10.7181 7.78174L10.632 7.63159L10.5381 7.48511L10.4406 7.34644L10.3318 7.21118L10.2228 7.07983L10.1024 6.95581L9.97882 6.83936L9.84747 6.72681L9.71201 6.61792L9.57321 6.52026L9.42679 6.42627L9.27664 6.34009L9.12277 6.26099L8.96497 6.1897L8.80365 6.12598L8.63864 6.06958L8.46576 6.02075L8.29285 5.97949L8.11664 5.94946L7.93625 5.927L7.7562 5.91187L7.57224 5.9082L7.38834 5.91187L7.20416 5.927L7.02405 5.94946L6.8476 5.97949L6.67514 6.02075L6.50226 6.06958L6.33704 6.12598L6.17184 6.1897L6.01428 6.26099L5.86041 6.34009L5.71005 6.42627L5.56387 6.52026L5.4212 6.61792L5.2858 6.72681L5.15826 6.83936L5.03076 6.95581L4.91431 7.07983L4.80139 7.21118L4.69269 7.34644L4.59134 7.48511L4.50125 7.63159L4.41098 7.78174L4.33603 7.93579L4.26089 8.09351L4.19702 8.25488L4.14087 8.42407L4.09183 8.59277L4.05444 8.76587L4.02051 8.94214L3.99823 9.11865L3.98306 9.30249L3.97949 9.48682L3.98306 9.67065L3.99823 9.85474L4.02051 10.031L4.05444 10.2114L4.09183 10.384L4.14087 10.5532L4.19702 10.7222L4.26089 10.8838L4.33603 11.0452L4.41098 11.1992L4.50125 11.3491L4.59134 11.4956L4.69269 11.6345L4.80139 11.7698L4.91431 11.9011L5.03076 12.0249L5.15826 12.1455L5.2858 12.2581L5.4212 12.3633L5.56387 12.4646L5.71005 12.5583L5.86041 12.6448L6.01428 12.7234L6.17184 12.7952L6.33704 12.8586L6.50226 12.9189L6.67514 12.9639L6.8476 13.0051L7.02405 13.0352L7.20416 13.0615L7.38834 13.073L7.57224 13.0764Z" fill="#EB2230" fill-opacity="1.000000" fill-rule="evenodd"/>
			<path id="Vector" d="M9.55078 7.28247L11.4544 7.28247L11.4544 7.08716L9.716 7.08716L9.55078 7.28247Z" fill="#FBB230" fill-opacity="1.000000" fill-rule="evenodd"/>
			<path id="Vector" d="M9.26611 7.71436L11.455 7.71436L11.455 7.51904L9.37878 7.51904L9.26611 7.71436Z" fill="#FBB230" fill-opacity="1.000000" fill-rule="evenodd"/>
			<path id="Vector" d="M9.05188 8.14648L11.4547 8.14648L11.4547 7.95117L9.13831 7.95117L9.05188 8.14648Z" fill="#FBB230" fill-opacity="1.000000" fill-rule="evenodd"/>
			<path id="Vector" d="M8.9054 8.57788L11.4547 8.57788L11.4547 8.38647L8.96539 8.38647L8.9054 8.57788Z" fill="#FBB230" fill-opacity="1.000000" fill-rule="evenodd"/>
			<path id="Vector" d="M8.99094 10.6736L11.4615 10.6736L11.4615 10.4783L8.93115 10.4783L8.99094 10.6736Z" fill="#FBB230" fill-opacity="1.000000" fill-rule="evenodd"/>
			<path id="Vector" d="M9.17157 11.1055L11.4618 11.1055L11.4618 10.9102L9.08154 10.9102L9.17157 11.1055Z" fill="#FBB230" fill-opacity="1.000000" fill-rule="evenodd"/>
			<path id="Vector" d="M9.43054 11.5371L11.4617 11.5371L11.4617 11.3418L9.30664 11.3418L9.43054 11.5371Z" fill="#FBB230" fill-opacity="1.000000" fill-rule="evenodd"/>
			<path id="Vector" d="M9.784 11.969L11.4621 11.969L11.4621 11.7737L9.61133 11.7737L9.784 11.969Z" fill="#FBB230" fill-opacity="1.000000" fill-rule="evenodd"/>
			<path id="Vector" d="M8.81885 9.01001L11.4544 9.01001L11.4544 8.81836L8.85632 8.81836L8.81885 9.01001Z" fill="#FBB230" fill-opacity="1.000000" fill-rule="evenodd"/>
			<path id="Vector" d="M10.4253 10.2417L11.4315 10.2417L11.4315 10.0464L10.463 10.0464L10.4253 10.2417Z" fill="#FBB230" fill-opacity="1.000000" fill-rule="evenodd"/>
			<path id="Vector" d="M10.5045 9.80957L11.432 9.80957L11.432 9.61426L10.5422 9.61426L10.5045 9.80957Z" fill="#FBB230" fill-opacity="1.000000" fill-rule="evenodd"/>
			<path id="Vector" d="M8.75159 9.61426L9.01434 9.61426L9.01434 9.80957L8.76682 9.80957L8.75159 9.61426Z" fill="#FBB230" fill-opacity="1.000000" fill-rule="evenodd"/>
			<path id="Vector" d="M15.6147 11.5068C15.7086 11.5068 15.7838 11.5857 15.7838 11.6755C15.7838 11.7695 15.7086 11.8447 15.6147 11.8447C15.5208 11.8447 15.4459 11.7695 15.4459 11.6755C15.4459 11.5857 15.5208 11.5068 15.6147 11.5068ZM15.6147 11.5369C15.6937 11.5369 15.7573 11.6006 15.7573 11.6755C15.7573 11.7546 15.6938 11.8186 15.6147 11.8186C15.5398 11.8186 15.4756 11.7546 15.4756 11.6755C15.4756 11.6006 15.5398 11.5369 15.6147 11.5369Z" fill="#FBB230" fill-opacity="1.000000" fill-rule="evenodd"/>
			<path id="Vector" d="M15.5509 11.751L15.5509 11.6084L15.6108 11.6084C15.6257 11.6084 15.637 11.6084 15.6447 11.6123C15.6519 11.616 15.656 11.6196 15.6595 11.6233C15.6632 11.6309 15.667 11.6384 15.667 11.646C15.667 11.6572 15.6632 11.6685 15.6595 11.6724C15.6519 11.6797 15.6409 11.6836 15.6293 11.6873C15.637 11.6909 15.6408 11.6948 15.6447 11.6985C15.6483 11.7021 15.6559 11.7097 15.6595 11.7209L15.6783 11.751L15.6447 11.751L15.6219 11.7173C15.6179 11.7058 15.6107 11.7024 15.607 11.6985C15.607 11.6948 15.6031 11.6948 15.5994 11.6909C15.5957 11.6909 15.5918 11.6909 15.5844 11.6909L15.5805 11.6909L15.5805 11.751L15.5509 11.751ZM15.5807 11.6685L15.5996 11.6685C15.6144 11.6685 15.6219 11.6685 15.6258 11.6648C15.6294 11.6648 15.6335 11.6648 15.6335 11.6609C15.6371 11.6572 15.6371 11.6536 15.6371 11.6497C15.6371 11.6458 15.6371 11.6421 15.6335 11.6384C15.6294 11.6345 15.6258 11.6345 15.6219 11.6309C15.6219 11.6309 15.6145 11.6309 15.6032 11.6309L15.5807 11.6309L15.5807 11.6685L15.5807 11.6685Z" fill="#FBB230" fill-opacity="1.000000" fill-rule="nonzero"/>
			<path id="Vector" d="M15.5765 10.0952C15.6703 10.0952 15.7453 10.1704 15.7453 10.2644C15.7453 10.3582 15.6703 10.4331 15.5765 10.4331C15.4826 10.4331 15.4077 10.3582 15.4077 10.2644C15.4077 10.1704 15.4826 10.0952 15.5765 10.0952ZM15.5765 10.1252C15.6555 10.1252 15.7192 10.189 15.7192 10.2642C15.7192 10.343 15.6556 10.407 15.5765 10.407C15.4975 10.407 15.4338 10.343 15.4338 10.2642C15.4338 10.189 15.4975 10.1252 15.5765 10.1252Z" fill="#FFFFFF" fill-opacity="1.000000" fill-rule="evenodd"/>
			<path id="Vector" d="M15.5127 10.3354L15.5127 10.1963L15.5728 10.1963C15.5878 10.1963 15.5992 10.1963 15.6066 10.2002C15.6104 10.2002 15.6176 10.2075 15.6215 10.2114C15.6253 10.2188 15.6288 10.2263 15.6288 10.2341C15.6288 10.2454 15.6253 10.2527 15.6176 10.26C15.614 10.2676 15.6028 10.2715 15.5915 10.2754C15.5953 10.2788 15.6028 10.2827 15.6066 10.2866C15.6104 10.29 15.614 10.2976 15.6215 10.3088L15.6404 10.3354L15.6066 10.3354L15.5839 10.3054C15.5765 10.2939 15.5727 10.2866 15.5688 10.2866C15.5652 10.2827 15.5652 10.2788 15.5616 10.2788C15.5575 10.2788 15.554 10.2788 15.5465 10.2788L15.5391 10.2788L15.5391 10.3354L15.5127 10.3354ZM15.5391 10.2566L15.5617 10.2566C15.5765 10.2566 15.584 10.2566 15.5878 10.2527C15.5915 10.2527 15.5953 10.2488 15.5953 10.2488C15.5992 10.2454 15.5992 10.2415 15.5992 10.2375C15.5992 10.2341 15.5953 10.2263 15.5953 10.2263C15.5915 10.2227 15.5878 10.2188 15.584 10.2188C15.5803 10.2188 15.5728 10.2188 15.5617 10.2188L15.5392 10.2188L15.5391 10.2566Z" fill="#FFFFFF" fill-opacity="1.000000" fill-rule="nonzero"/>
			<path id="Vector" d="M13.1632 10.3616L13.4072 9.08496L13.7112 9.08496L13.7489 9.21631C13.8051 9.15991 13.8989 9.08496 14.0867 9.08496L13.9928 9.42285C13.9102 9.42285 13.7825 9.40771 13.6776 9.65552C13.5988 9.84351 13.5611 10.155 13.5198 10.3616L13.1632 10.3616Z" fill="#FFFFFF" fill-opacity="1.000000" fill-rule="evenodd"/>
			<path id="Vector" d="M8.55988 8.76587L8.89746 8.76587L8.82251 9.10376L9.01031 9.10376L8.95392 9.36646L8.7851 9.36646L8.69116 9.87354C8.67249 9.96753 8.69116 10.0615 8.87897 10.0237L8.84155 10.3054C8.63885 10.4592 8.23306 10.3467 8.29691 9.96753L8.55988 8.76587Z" fill="#FFFFFF" fill-opacity="1.000000" fill-rule="evenodd"/>
			<path id="Vector" d="M10.0657 9.79834C10.1032 9.5918 10.1971 9.08496 9.59268 9.08496C9.02963 9.08496 8.95447 9.64819 8.95447 9.72314C8.93594 9.79834 8.93594 10.3616 9.53647 10.3616C9.68655 10.3616 9.89691 10.3428 9.99078 10.3052L10.047 10.0422C9.99078 10.0613 9.79922 10.0801 9.64914 10.0801C9.51779 10.0801 9.29257 10.0801 9.32999 9.7981L10.0657 9.79834Z" fill="#FFFFFF" fill-opacity="1.000000" fill-rule="evenodd"/>
			<path id="Vector" d="M5.96933 10.3616L6.26971 8.82202L5.68402 8.82202L5.27097 9.76099L5.19583 8.82202L4.65149 8.82202L4.35107 10.3616L4.68893 10.3616L4.91443 9.25391L5.0083 10.3616L5.32742 10.3616L5.8154 9.27271L5.60883 10.3616L5.96933 10.3616Z" fill="#FFFFFF" fill-opacity="1.000000" fill-rule="evenodd"/>
			<path id="Vector" d="M6.36301 9.12256L6.30679 9.4043C6.40073 9.4043 6.62589 9.36646 6.73849 9.36646C6.85117 9.36646 7.00125 9.3479 6.94507 9.53564C6.85117 9.53564 6.23157 9.44165 6.1377 9.98633C6.08536 10.3467 6.51328 10.478 6.77597 10.3054L6.81363 10.3804L7.13254 10.3804L7.2641 9.68579C7.40295 9.05859 6.79861 9.04736 6.36301 9.12256Z" fill="#FFFFFF" fill-opacity="1.000000" fill-rule="evenodd"/>
			<path id="Vector" d="M11.9536 9.23535C11.8672 9.18262 11.8146 9.18262 11.7058 9.18262C11.6006 9.18262 11.3528 9.28784 11.3189 9.56934C11.2663 9.92236 11.4954 10.0801 11.8295 9.97485L11.9198 10.2754C11.3492 10.5608 10.8045 10.1177 10.9848 9.42676C11.1311 8.90479 11.822 8.58936 12.1676 9.02124L11.9536 9.23535Z" fill="#FFFFFF" fill-opacity="1.000000" fill-rule="evenodd"/>
			<path id="Vector" d="M14.9307 9.23535C14.0107 8.54419 13.654 10.3618 14.3674 10.3618C14.48 10.3618 14.5929 10.3057 14.6678 10.2678L14.7052 10.3618L15.0808 10.3618L15.3812 8.74707L15.0244 8.74707L14.9307 9.23535Z" fill="#FFFFFF" fill-opacity="1.000000" fill-rule="evenodd"/>
			<path id="Vector" d="M12.2239 9.12256L12.1676 9.4043C12.2612 9.4043 12.4868 9.36646 12.5992 9.36646C12.7121 9.36646 12.8434 9.3479 12.8059 9.53564C12.7121 9.53564 12.0925 9.44165 11.9989 9.98633C11.9608 10.249 12.1864 10.3804 12.3554 10.3804C12.5242 10.3804 12.5806 10.3428 12.6368 10.3054L12.6743 10.3804L12.9937 10.3804L13.1249 9.68579C13.2678 9.05859 12.6631 9.04736 12.2239 9.12256Z" fill="#FFFFFF" fill-opacity="1.000000" fill-rule="evenodd"/>
			<path id="Vector" d="M9.32959 9.55444L9.76135 9.55444C9.81012 9.21265 9.40088 9.28027 9.32959 9.55444Z" fill="#EB2230" fill-opacity="1.000000" fill-rule="evenodd"/>
			<path id="Vector" d="M6.8894 9.79834C6.83295 9.79834 6.7016 9.76099 6.58871 9.83618C6.47638 9.91113 6.43869 10.0425 6.57019 10.0801C6.68259 10.1174 6.83295 10.0425 6.87036 9.92969L6.8894 9.79834Z" fill="#EB2230" fill-opacity="1.000000" fill-rule="evenodd"/>
			<path id="Vector" d="M14.7622 9.44189C14.6496 9.2915 14.4056 9.4043 14.3305 9.68579C14.2743 9.87354 14.3869 10.0051 14.4995 10.0051C14.7361 10.0051 14.8787 9.61841 14.7622 9.44189Z" fill="#FBB230" fill-opacity="1.000000" fill-rule="evenodd"/>
			<path id="Vector" d="M12.769 9.79834C12.7129 9.79834 12.5815 9.76099 12.4686 9.83618C12.3563 9.91113 12.3185 10.0425 12.4501 10.0801C12.5625 10.1174 12.7316 10.0425 12.7503 9.92969L12.769 9.79834Z" fill="#FBB230" fill-opacity="1.000000" fill-rule="evenodd"/>
			<path id="Vector" d="M10.0654 10.3804L10.0844 10.249L10.3097 9.10376L10.6098 9.10376L10.6473 9.23511C10.7037 9.17871 10.7976 9.10376 10.9854 9.10376L10.8914 9.44165C10.8202 9.44165 10.6698 9.42651 10.5572 9.72705C10.4933 9.89966 10.4559 10.1929 10.4221 10.3804L10.0654 10.3804Z" fill="#FFFFFF" fill-opacity="1.000000" fill-rule="evenodd"/>
			<path id="Vector" d="M8.24838 9.41187L8.23322 9.41187L8.21835 9.41187L8.20352 9.40796L8.18839 9.4043L8.17325 9.4043L8.15836 9.40039C8.09067 9.39307 8.03445 9.38916 7.96701 9.39307C7.79413 9.40796 7.71921 9.5166 7.86548 9.59937C7.9819 9.66699 8.07217 9.65576 8.1507 9.73096C8.31979 9.88867 8.23331 10.1929 8.04553 10.3091L8.01193 10.3242L7.97446 10.3394L7.9332 10.3503L7.89578 10.3616C7.71542 10.3916 7.4715 10.3843 7.29492 10.3242L7.34369 10.0725C7.48633 10.1025 7.71927 10.1665 7.82803 10.0916C7.952 10.0088 7.83932 9.91113 7.74902 9.86987L7.70416 9.85498L7.65927 9.83618C7.30243 9.67456 7.38528 9.24268 7.7229 9.15259C7.85806 9.12256 7.99326 9.12256 8.13229 9.13379L8.15842 9.13379C8.19235 9.13745 8.22238 9.14136 8.25235 9.14868L8.26724 9.14868L8.27853 9.15259L8.28983 9.15259L8.29721 9.15649L8.3085 9.15649L8.24838 9.41187Z" fill="#FFFFFF" fill-opacity="1.000000" fill-rule="evenodd"/>
		</g>
	</g>
	<rect id="Без названия (1)" width="20.000000" height="20.000000" transform="translate(28.000000 0.000000)" fill="#FFFFFF" fill-opacity="0"/>
	<g clip-path="url(#clip1_1044)">
		<path id="Vector" d="M48.0005 10C48.0005 15.5229 43.5233 20 38.0005 20C32.4776 20 28.0005 15.5229 28.0005 10C28.0005 4.47705 32.4776 0 38.0005 0C43.5233 0 48.0005 4.47705 48.0005 10Z" fill="#26A17B" fill-opacity="1.000000" fill-rule="evenodd"/>
		<path id="Vector" d="M43.4661 7.66626C42.9667 7.31177 42.4324 6.93384 41.9099 6.55884C41.898 6.55005 41.8867 6.54126 41.8724 6.53247C41.8111 6.48218 41.7418 6.44263 41.6674 6.41553L41.6611 6.4126C40.263 6.06934 38.8653 5.72485 37.468 5.37866L33.728 4.45557L33.6299 4.42944C33.5174 4.39746 33.3874 4.36182 33.2486 4.37939C33.2106 4.38525 33.1743 4.39917 33.1424 4.42065L33.1074 4.44995C33.0635 4.49487 33.0301 4.54883 33.0092 4.60815L33.0005 4.63184L33.0005 4.76636L33.0067 4.78687C33.7943 7.02759 34.603 9.30054 35.383 11.5C35.9836 13.1938 36.608 14.9475 37.2167 16.6699C37.2542 16.7869 37.3611 16.8638 37.4942 16.875L37.523 16.875C37.5811 16.8765 37.6386 16.8623 37.6895 16.834C37.7403 16.8057 37.7825 16.7642 37.8117 16.7139L40.0992 13.3306C40.6561 12.5076 41.2136 11.6819 41.7711 10.8586L42.4555 9.84497C42.8305 9.28882 43.218 8.71436 43.6024 8.15503L43.6224 8.12622L43.6224 8.09058C43.6311 7.98804 43.6336 7.77808 43.4661 7.66626ZM40.7861 8.89941C40.2486 9.18311 39.7005 9.47632 39.1486 9.76636L40.1136 8.71753C40.5149 8.27808 40.9336 7.82373 41.3436 7.37866L41.3524 7.37012C41.3867 7.32324 41.4305 7.2793 41.4767 7.23242C41.508 7.20068 41.543 7.16821 41.5749 7.12988C41.7886 7.28003 42.0049 7.43188 42.213 7.5813C42.363 7.68945 42.5161 7.7981 42.6724 7.90625C42.0414 8.23315 41.4127 8.56421 40.7861 8.89941ZM39.4061 8.75879C38.993 9.2124 38.5655 9.67822 38.1411 10.1382C37.3175 9.12476 36.4915 8.11328 35.663 7.10376L34.5511 5.74756L34.5486 5.74438C34.4649 5.64819 34.3836 5.54248 34.303 5.44312C34.2511 5.37573 34.1961 5.31128 34.1411 5.24365C34.4761 5.3313 34.8142 5.41382 35.1461 5.49243C35.438 5.56323 35.7411 5.63623 36.0386 5.7124L41.0667 6.95117C40.5092 7.55493 39.9486 8.16699 39.4061 8.75879ZM37.953 14.4675C37.9849 14.1599 38.0199 13.8438 38.0486 13.5332C38.0749 13.2837 38.1005 13.0293 38.1267 12.7861C38.1667 12.3962 38.2105 11.9924 38.2455 11.5969L38.2536 11.5269C38.2823 11.2744 38.3111 11.0144 38.3286 10.7532C38.3622 10.7341 38.3971 10.7175 38.433 10.7031C38.4761 10.6831 38.5192 10.6655 38.5624 10.6394C39.2294 10.2839 39.8976 9.93042 40.5667 9.57886C41.2343 9.22754 41.9186 8.86377 42.5974 8.50366C41.9815 9.4082 41.3682 10.3145 40.7574 11.2224C40.2405 11.9863 39.7092 12.7744 39.1805 13.5505C38.973 13.8613 38.7561 14.1775 38.5511 14.4819C38.3199 14.8218 38.083 15.1699 37.8524 15.5193C37.8811 15.1675 37.9155 14.8132 37.953 14.4675ZM33.928 5.93506C33.8905 5.82935 33.8492 5.72119 33.8148 5.61865C34.5948 6.57373 35.3799 7.53442 36.1455 8.46558C36.5411 8.94873 36.9367 9.42944 37.3324 9.91553C37.4105 10.0063 37.4886 10.103 37.5636 10.1968C37.6617 10.3169 37.7599 10.4431 37.8667 10.5632C37.8317 10.8643 37.803 11.1694 37.7711 11.4619C37.7511 11.667 37.7311 11.8726 37.708 12.0806L37.708 12.083C37.6992 12.2144 37.6817 12.3469 37.6674 12.4756L37.6011 13.0588L37.598 13.0789C37.5461 13.6707 37.4824 14.2681 37.4218 14.8481C37.3961 15.0881 37.373 15.3345 37.3467 15.5806C37.3324 15.5369 37.3155 15.4924 37.3005 15.4512C37.2565 15.3318 37.2142 15.2119 37.1736 15.0913L36.8642 14.2212L33.9274 5.93506L33.928 5.93506Z" fill="#FFFFFF" fill-opacity="1.000000" fill-rule="nonzero"/>
	</g>
	<rect id="Без названия (3)" width="20.000000" height="20.000000" transform="translate(56.000000 0.000000)" fill="#FFFFFF" fill-opacity="0"/>
	<g clip-path="url(#clip1_1048)">
		<path id="Vector" d="M66.0002 20C71.5231 20 76.0002 15.5229 76.0002 10C76.0002 4.47705 71.5231 0 66.0002 0C60.4774 0 56.0002 4.47705 56.0002 10C56.0002 15.5229 60.4774 20 66.0002 20Z" fill="#8DC351" fill-opacity="1.000000" fill-rule="nonzero"/>
		<path id="Vector" d="M70.6836 8.30664C70.2103 8.06641 69.6403 8.0166 68.9803 8.15991C69.5503 7.4165 69.5703 6.60327 69.0403 5.72656C68.8503 5.40649 68.6203 5.15991 68.347 4.98975C68.0736 4.81641 67.7736 4.71997 67.437 4.69653C67.1036 4.6731 66.7603 4.69653 66.4169 4.76318C66.0703 4.83325 65.6903 4.94312 65.2736 5.09985L64.3603 3.18652L63.1903 3.74316L64.0769 5.60327C63.8736 5.69995 63.567 5.85327 63.157 6.05981L62.2636 4.18311L61.0936 4.73975L62.007 6.65308C61.8436 6.73657 61.597 6.85645 61.2736 7.01318L59.6603 7.77319L60.2536 9.01978L61.097 8.61646C61.4803 8.43311 61.7903 8.49658 62.0203 8.80981L63.0603 10.9897C63.1103 10.9666 63.1536 10.95 63.187 10.9399L63.067 10.9966L64.5236 14.0498C64.6069 14.3264 64.5203 14.5266 64.2669 14.6465L63.4236 15.0498L63.8503 16.5532L65.3703 15.8298C65.4669 15.7832 65.6069 15.72 65.7903 15.6333C65.9736 15.5498 66.1103 15.4866 66.2036 15.4399L67.127 17.3765L68.2969 16.8198L67.3836 14.9065C67.6003 14.8098 67.9103 14.6665 68.3136 14.4731L69.2236 16.3799L70.3936 15.8232L69.4703 13.8865C69.877 13.6699 70.227 13.4531 70.5203 13.2466C70.8136 13.0366 71.0803 12.8032 71.317 12.5432C71.5536 12.2832 71.727 12.0198 71.8403 11.7466C71.9536 11.4766 72.0103 11.1731 72.007 10.8364C72.007 10.5032 71.937 10.1465 71.8003 9.76978C71.5303 9.0332 71.1603 8.54321 70.6836 8.30664ZM63.8369 7.41309C63.8736 7.39648 63.9703 7.34644 64.1336 7.2666C64.2969 7.18652 64.4336 7.11646 64.5403 7.06323C64.6469 7.00977 64.7969 6.94653 64.9903 6.87329C65.1836 6.7998 65.347 6.74658 65.4869 6.70996C65.627 6.6731 65.7836 6.6499 65.9636 6.63647C66.1436 6.62329 66.2969 6.63647 66.4303 6.67651C66.5603 6.71655 66.6903 6.78662 66.8136 6.88647C66.937 6.98657 67.0403 7.11987 67.1203 7.28662C67.187 7.42993 67.227 7.56982 67.2369 7.70654C67.2469 7.84326 67.2236 7.97314 67.1703 8.09644C67.1169 8.21997 67.0569 8.33325 66.9869 8.43652C66.9169 8.53979 66.817 8.64648 66.687 8.75317C66.5536 8.85986 66.437 8.94995 66.3369 9.02319C66.2336 9.09644 66.1036 9.17651 65.9403 9.26318C65.7769 9.34985 65.6536 9.4165 65.567 9.45996C65.4836 9.50317 65.3636 9.55981 65.2136 9.62988C65.0636 9.69995 64.9736 9.73975 64.9503 9.74976L63.8369 7.41309ZM69.4969 11.0632C69.5036 11.2031 69.4903 11.3333 69.4569 11.4565C69.4203 11.5798 69.3569 11.7031 69.2669 11.8264C69.1736 11.9531 69.0803 12.0632 68.9836 12.1565C68.8869 12.2532 68.7636 12.3564 68.6136 12.4631C68.4636 12.5732 68.3303 12.6631 68.2103 12.7332C68.0936 12.8066 67.9503 12.8865 67.7803 12.9766C67.6103 13.0664 67.4803 13.1333 67.3836 13.1799C67.287 13.2266 67.1636 13.2832 67.0169 13.3499C66.8703 13.4165 66.7736 13.46 66.7336 13.4797L65.5103 10.9131C65.5503 10.8933 65.6703 10.8333 65.8669 10.7332C66.0636 10.6333 66.227 10.5532 66.3536 10.4932C66.4803 10.4331 66.657 10.3564 66.8869 10.2666C67.1169 10.1765 67.3136 10.1099 67.4803 10.0664C67.6469 10.0232 67.8336 9.99316 68.0436 9.96997C68.2536 9.94653 68.437 9.95654 68.5903 9.99316C68.7436 10.0298 68.8936 10.1033 69.037 10.21C69.1803 10.3164 69.2969 10.46 69.3836 10.6399C69.4536 10.7832 69.4903 10.9231 69.4969 11.0632Z" fill="#FFFFFF" fill-opacity="1.000000" fill-rule="nonzero"/>
	</g>
	<rect id="Без названия (4)" width="20.000000" height="20.000000" transform="translate(84.000000 0.000000)" fill="#FFFFFF" fill-opacity="0"/>
	<g clip-path="url(#clip1_1051)">
		<path id="Vector" d="M104 10C104 15.5229 99.5231 20 94.0002 20C88.4774 20 84.0002 15.5229 84.0002 10C84.0002 4.47705 88.4774 0 94.0002 0C99.5231 0 104 4.47705 104 10Z" fill="#EB0029" fill-opacity="1.000000" fill-rule="evenodd"/>
		<path id="Vector" d="M89.4792 5.35791C89.5709 5.60156 93.4384 15.3032 93.4476 15.3125C93.4581 15.323 98.9863 8.61719 99.0002 8.57715C99.0072 8.55688 97.0788 6.72705 97.0279 6.70557C97.0066 6.69653 95.3097 6.38135 93.2571 6.00562C91.2045 5.62964 89.5105 5.3186 89.4926 5.3147C89.465 5.30835 89.463 5.3147 89.4792 5.35791ZM93.6187 6.6062C95.1064 6.87891 96.3237 7.10791 96.3237 7.11523C96.3237 7.12842 94.3062 8.80737 94.2433 8.84668C94.2138 8.86499 93.9769 8.67627 92.5614 7.5061C90.6872 5.95679 90.8716 6.11133 90.8954 6.1106C90.9055 6.11035 92.131 6.33325 93.6187 6.6062ZM92.2579 7.93628C93.4777 8.94629 93.9835 9.37622 93.9786 9.39868C93.9748 9.4165 93.8538 10.4138 93.7096 11.615C93.5654 12.8164 93.4431 13.8123 93.4379 13.8279C93.4327 13.8435 92.7729 12.2109 91.9716 10.2002C91.1703 8.18945 90.5098 6.53223 90.5038 6.51733C90.4978 6.50269 90.5013 6.49414 90.5116 6.49829C90.5219 6.5022 91.3077 7.14941 92.2579 7.93628ZM97.5065 7.86523C97.8215 8.16333 98.0759 8.4104 98.0719 8.41455C98.0592 8.427 94.9846 8.97949 94.9569 8.97412C94.9335 8.96948 96.8931 7.32349 96.922 7.32349C96.9284 7.32349 97.1915 7.56738 97.5065 7.86523ZM97.9606 9.01709C97.8705 9.14795 93.9795 13.8579 93.9758 13.8403C93.9734 13.8284 94.0865 12.8704 94.2271 11.7112L94.4829 9.604L96.1892 9.29297C97.1277 9.12207 97.9161 8.98145 97.9413 8.98022C97.9831 8.97876 97.9847 8.98193 97.9606 9.01709Z" fill="#FFFFFF" fill-opacity="1.000000" fill-rule="evenodd"/>
	</g>
	<rect id="Без названия" width="20.000000" height="20.000000" transform="translate(112.000000 0.000000)" fill="#FFFFFF" fill-opacity="0"/>
	<g clip-path="url(#clip1_1054)">
		<path id="Vector" d="M122 20C127.523 20 132 15.5229 132 10C132 4.47705 127.523 0 122 0C116.477 0 112 4.47705 112 10C112 15.5229 116.477 20 122 20Z" fill="url(#paint_linear_1_1055_0)" fill-opacity="1.000000" fill-rule="nonzero"/>
		<path id="Vector" d="M122 12.1199L118.163 10.2966L122 17L125.837 10.2966L122 12.1199Z" fill="#FFFFFF" fill-opacity="1.000000" fill-rule="nonzero"/>
		<path id="Vector" d="M125.417 8.93677L122 3L118.577 8.94336L122 7.32007L125.417 8.93677Z" fill="#FFFFFF" fill-opacity="1.000000" fill-rule="nonzero"/>
		<path id="Vector" d="M118.873 9.71338L122 11.1934L125.13 9.70996L122 8.22998L118.873 9.71338Z" fill="#FFFFFF" fill-opacity="1.000000" fill-rule="nonzero"/>
	</g>
	<rect id="binance-usd-busd-logo" width="19.940140" height="20.000004" transform="translate(140.000000 0.000000)" fill="#FFFFFF" fill-opacity="0"/>
	<g clip-path="url(#clip1_1059)">
		<path id="Vector" d="M149.969 0.0419922L152.429 2.56104L146.235 8.75513L143.775 6.29541L149.969 0.0419922Z" fill="#F0B90B" fill-opacity="1.000000" fill-rule="nonzero"/>
		<path id="Vector" d="M152.429 2.56104L146.235 8.75513L143.775 6.29541L149.969 0.0419922L152.429 2.56104Z" stroke="#F0B90B" stroke-opacity="1.000000" stroke-width="0.059273"/>
		<path id="Vector" d="M153.703 3.77637L156.163 6.29541L146.235 16.2239L143.775 13.7639L153.703 3.77637Z" fill="#F0B90B" fill-opacity="1.000000" fill-rule="nonzero"/>
		<path id="Vector" d="M156.163 6.29541L146.235 16.2239L143.775 13.7639L153.703 3.77637L156.163 6.29541Z" stroke="#F0B90B" stroke-opacity="1.000000" stroke-width="0.059273"/>
		<path id="Vector" d="M142.501 7.51074L144.961 10.0298L142.501 12.4897L140.041 10.0298L142.501 7.51074Z" fill="#F0B90B" fill-opacity="1.000000" fill-rule="nonzero"/>
		<path id="Vector" d="M144.961 10.0298L142.501 12.4897L140.041 10.0298L142.501 7.51074L144.961 10.0298Z" stroke="#F0B90B" stroke-opacity="1.000000" stroke-width="0.059273"/>
		<path id="Vector" d="M157.438 7.51074L159.898 10.0298L149.969 19.9583L147.51 17.4983L157.438 7.51074Z" fill="#F0B90B" fill-opacity="1.000000" fill-rule="nonzero"/>
		<path id="Vector" d="M159.898 10.0298L149.969 19.9583L147.51 17.4983L157.438 7.51074L159.898 10.0298Z" stroke="#F0B90B" stroke-opacity="1.000000" stroke-width="0.059273"/>
	</g>
</svg>
