<svg width="28" height="28" viewBox="0 0 28 28" fill="none" xmlns="http://www.w3.org/2000/svg" xmlns:xlink="http://www.w3.org/1999/xlink">
	<desc>
			Created with Pixso.
	</desc>
	<defs/>
	<path id="Oval" d="M17.9165 7.58337C17.9165 5.32812 16.0884 3.5 13.8335 3.5C11.5781 3.5 9.75 5.32812 9.75 7.58337C9.75 9.8385 11.5781 11.6666 13.8335 11.6666C16.0884 11.6666 17.9165 9.8385 17.9165 7.58337Z" stroke="#FFFFFF" stroke-opacity="1.000000" stroke-width="2.000000" stroke-linejoin="round"/>
	<path id="Vector" d="M22.6035 17.52L22.5835 17.5C22.5835 17.08 22.9136 16.75 23.3335 16.75C23.7534 16.75 24.0835 17.08 24.0835 17.5L24.0635 17.52L22.6035 17.52ZM24.0635 23.3134L24.0835 23.3334C24.0835 23.7533 23.7534 24.0834 23.3335 24.0834C22.9136 24.0834 22.5835 23.7533 22.5835 23.3334L22.6035 23.3134L24.0635 23.3134Z" fill="#D8D8D8" fill-opacity="0" fill-rule="nonzero"/>
	<path id="Vector" d="M23.3335 17.5L23.3335 23.3334" stroke="#FFFFFF" stroke-opacity="1.000000" stroke-width="1.500000" stroke-linejoin="round" stroke-linecap="round"/>
	<path id="Vector" d="M26.1689 19.303L26.1968 19.303C26.4941 19.6 26.4941 20.0667 26.1968 20.3636C25.8999 20.6606 25.4331 20.6606 25.1362 20.3636L25.1362 20.3353L26.1689 19.303ZM21.5303 20.3353L21.5303 20.3636C21.2334 20.6606 20.7666 20.6606 20.4697 20.3636C20.1729 20.0667 20.1729 19.6 20.4697 19.303L20.498 19.303L21.5303 20.3353Z" fill="#D8D8D8" fill-opacity="0" fill-rule="nonzero"/>
	<path id="Vector" d="M21 19.8334L23.3335 17.5L25.6665 19.8334" stroke="#FFFFFF" stroke-opacity="1.000000" stroke-width="1.500000" stroke-linejoin="round" stroke-linecap="round"/>
	<path id="Rectangle 139" d="M17.5 24.5L5.25 24.5C5.25 24.3453 5.25 24.2679 5.25098 24.2025C5.32178 19.8867 8.80322 16.405 13.1191 16.3345C13.1846 16.3334 13.2617 16.3334 13.4165 16.3334L17.5 16.3334" stroke="#FFFFFF" stroke-opacity="1.000000" stroke-width="2.000000" stroke-linejoin="round" stroke-linecap="round"/>
</svg>
