<svg width="24" height="24" viewBox="0 0 18 18" fill="none" xmlns="http://www.w3.org/2000/svg" xmlns:xlink="http://www.w3.org/1999/xlink">
	<desc>
			Created with Pixso.
	</desc>
	<defs/>
	<path id="Vector" d="M7.17969 5.36047C7.17969 4.58899 7.83447 4.29236 8.91992 4.29236C10.4756 4.29236 12.4409 4.74719 13.9971 5.55823L13.9971 0.909912C12.2979 0.257202 10.6191 0 8.91992 0C4.76367 0 2 2.09668 2 5.59778C2 11.0571 9.7793 10.1868 9.7793 12.5406C9.7793 13.4506 8.96045 13.7473 7.81396 13.7473C6.11475 13.7473 3.94482 13.0747 2.2251 12.1648L2.2251 16.8726C4.12891 17.6637 6.05371 18 7.81396 18C12.0723 18 15 15.9626 15 12.422C14.9795 6.52747 7.17969 7.57581 7.17969 5.36047Z" fill="#635BFF" fill-opacity="1.000000" fill-rule="evenodd"/>
</svg>
