<svg width="159.940140" height="20.000000" viewBox="0 0 159.94 20" fill="none" xmlns="http://www.w3.org/2000/svg" xmlns:xlink="http://www.w3.org/1999/xlink">
	<desc>
			Created with Pixso.
	</desc>
	<defs>
		<clipPath id="clip1_1074">
			<rect id="Без названия (1)" width="20.000000" height="20.000000" fill="white" fill-opacity="0"/>
		</clipPath>
		<clipPath id="clip1_1079">
			<rect id="Без названия (2)" width="20.000000" height="12.492837" transform="translate(28.000244 3.225098)" fill="white" fill-opacity="0"/>
		</clipPath>
		<clipPath id="clip1_1117">
			<rect id="Без названия (4)" width="20.000000" height="20.000000" transform="translate(56.000000 0.000000)" fill="white" fill-opacity="0"/>
		</clipPath>
		<clipPath id="clip1_1120">
			<rect id="Без названия (3)" width="20.000000" height="20.000000" transform="translate(84.000000 0.000000)" fill="white" fill-opacity="0"/>
		</clipPath>
		<clipPath id="clip1_1123">
			<rect id="binance-usd-busd-logo" width="19.940140" height="20.000004" transform="translate(112.000000 0.000000)" fill="white" fill-opacity="0"/>
		</clipPath>
		<clipPath id="clip1_1130">
			<rect id="Без названия" width="20.000000" height="20.000000" transform="translate(139.940125 0.000000)" fill="white" fill-opacity="0"/>
		</clipPath>
		<linearGradient id="paint_linear_1_1131_0" x1="149.940369" y1="0.000000" x2="149.940369" y2="20.000000" gradientUnits="userSpaceOnUse">
			<stop stop-color="#4A819F"/>
			<stop offset="1.000000" stop-color="#034681"/>
		</linearGradient>
	</defs>
	<rect id="Без названия (1)" width="20.000000" height="20.000000" fill="#FFFFFF" fill-opacity="0"/>
	<g clip-path="url(#clip1_1074)">
		<path id="Vector" d="M20.0005 10C20.0005 15.5229 15.5233 20 10.0005 20C4.47763 20 0.000488281 15.5229 0.000488281 10C0.000488281 4.47705 4.47763 0 10.0005 0C15.5233 0 20.0005 4.47705 20.0005 10Z" fill="#26A17B" fill-opacity="1.000000" fill-rule="evenodd"/>
		<path id="Vector" d="M15.4661 7.66626C14.9667 7.31177 14.4324 6.93384 13.9099 6.55884C13.898 6.55005 13.8867 6.54126 13.8724 6.53247C13.8111 6.48218 13.7418 6.44263 13.6674 6.41553L13.6611 6.4126C12.263 6.06934 10.8653 5.72485 9.46799 5.37866L5.728 4.45557L5.62985 4.42944C5.51736 4.39746 5.38736 4.36182 5.24863 4.37939C5.2106 4.38525 5.17435 4.39917 5.14236 4.42065L5.10736 4.44995C5.06354 4.49487 5.03006 4.54883 5.00925 4.60815L5.00049 4.63184L5.00049 4.76636L5.00674 4.78687C5.79425 7.02759 6.603 9.30054 7.383 11.5C7.98361 13.1938 8.608 14.9475 9.21674 16.6699C9.25424 16.7869 9.36111 16.8638 9.49423 16.875L9.52298 16.875C9.58115 16.8765 9.63864 16.8623 9.68945 16.834C9.74026 16.8057 9.7825 16.7642 9.81174 16.7139L12.0992 13.3306C12.6561 12.5076 13.2136 11.6819 13.7711 10.8586L14.4555 9.84497C14.8305 9.28882 15.218 8.71436 15.6024 8.15503L15.6224 8.12622L15.6224 8.09058C15.6311 7.98804 15.6336 7.77808 15.4661 7.66626ZM12.7861 8.89941C12.2486 9.18311 11.7005 9.47632 11.1486 9.76636L12.1136 8.71753C12.5149 8.27808 12.9336 7.82373 13.3436 7.37866L13.3524 7.37012C13.3867 7.32324 13.4305 7.2793 13.4767 7.23242C13.508 7.20068 13.543 7.16821 13.5749 7.12988C13.7886 7.28003 14.0049 7.43188 14.213 7.5813C14.363 7.68945 14.5161 7.7981 14.6724 7.90625C14.0414 8.23315 13.4127 8.56421 12.7861 8.89941ZM11.4061 8.75879C10.993 9.2124 10.5655 9.67822 10.1411 10.1382C9.3175 9.12476 8.49146 8.11328 7.66299 7.10376L6.55112 5.74756L6.54861 5.74438C6.46487 5.64819 6.38361 5.54248 6.30298 5.44312C6.2511 5.37573 6.19611 5.31128 6.14111 5.24365C6.4761 5.3313 6.81424 5.41382 7.14612 5.49243C7.43799 5.56323 7.74112 5.63623 8.0386 5.7124L13.0667 6.95117C12.5092 7.55493 11.9486 8.16699 11.4061 8.75879ZM9.953 14.4675C9.98486 14.1599 10.0199 13.8438 10.0486 13.5332C10.0749 13.2837 10.1005 13.0293 10.1267 12.7861C10.1667 12.3962 10.2105 11.9924 10.2455 11.5969L10.2536 11.5269C10.2823 11.2744 10.3111 11.0144 10.3286 10.7532C10.3622 10.7341 10.3971 10.7175 10.433 10.7031C10.4761 10.6831 10.5192 10.6655 10.5624 10.6394C11.2294 10.2839 11.8976 9.93042 12.5667 9.57886C13.2343 9.22754 13.9186 8.86377 14.5974 8.50366C13.9815 9.4082 13.3682 10.3145 12.7574 11.2224C12.2405 11.9863 11.7092 12.7744 11.1805 13.5505C10.973 13.8613 10.7561 14.1775 10.5511 14.4819C10.3199 14.8218 10.083 15.1699 9.85236 15.5193C9.8811 15.1675 9.9155 14.8132 9.953 14.4675ZM5.92798 5.93506C5.8905 5.82935 5.84924 5.72119 5.81485 5.61865C6.59485 6.57373 7.37985 7.53442 8.14548 8.46558C8.54111 8.94873 8.93674 9.42944 9.33237 9.91553C9.41049 10.0063 9.48862 10.103 9.5636 10.1968C9.66174 10.3169 9.75986 10.4431 9.86673 10.5632C9.83173 10.8643 9.80298 11.1694 9.77112 11.4619C9.7511 11.667 9.73111 11.8726 9.70798 12.0806L9.70798 12.083C9.69925 12.2144 9.68173 12.3469 9.66736 12.4756L9.6011 13.0588L9.59799 13.0789C9.54611 13.6707 9.48236 14.2681 9.42175 14.8481C9.39612 15.0881 9.37299 15.3345 9.34674 15.5806C9.33237 15.5369 9.31549 15.4924 9.30048 15.4512C9.25647 15.3318 9.21417 15.2119 9.17361 15.0913L8.86423 14.2212L5.92737 5.93506L5.92798 5.93506Z" fill="#FFFFFF" fill-opacity="1.000000" fill-rule="nonzero"/>
	</g>
	<rect id="Без названия (2)" width="20.000000" height="12.492837" transform="translate(28.000244 3.225098)" fill="#FFFFFF" fill-opacity="0"/>
	<g clip-path="url(#clip1_1079)">
		<mask id="mask1_1081" mask-type="alpha" maskUnits="userSpaceOnUse" x="28.000977" y="3.225098" width="20.000000" height="12.492920">
			<path id="Vector" d="M28.001 3.2251L48.001 3.2251L48.001 15.718L28.001 15.718L28.001 3.2251Z" fill="#000000" fill-opacity="1.000000" fill-rule="evenodd"/>
		</mask>
		<g mask="url(#mask1_1081)">
			<path id="Vector" d="M47.9617 15.0706C47.9617 15.4385 47.6613 15.739 47.2935 15.739L28.6458 15.739C28.2779 15.739 27.9775 15.4385 27.9775 15.0706L27.9775 3.91431C27.9775 3.54639 28.2779 3.24585 28.6458 3.24585L47.2935 3.24585C47.6614 3.24585 47.9618 3.54639 47.9618 3.91431L47.9617 15.0706Z" fill="#14477C" fill-opacity="1.000000" fill-rule="evenodd"/>
			<path id="Vector" d="M40.3666 13.0764L40.5505 13.073L40.7347 13.0615L40.9148 13.0352L41.0912 13.0051L41.2639 12.9639L41.4366 12.9189L41.6017 12.8586L41.767 12.7952L41.9245 12.7234L42.0784 12.6448L42.2288 12.5583L42.3752 12.4646L42.5179 12.3633L42.653 12.2581L42.7805 12.1455L42.908 12.0249L43.0246 11.9011L43.1374 11.7698L43.2461 11.6345L43.3475 11.4956L43.4376 11.3491L43.5278 11.1992L43.6028 11.0452L43.6779 10.8838L43.7418 10.7222L43.7982 10.5532L43.847 10.384L43.8881 10.2114L43.9183 10.031L43.9409 9.85474L43.9557 9.67065L43.9594 9.48682L43.9557 9.30249L43.9409 9.11865L43.9183 8.94214L43.8881 8.76587L43.847 8.59277L43.7982 8.42407L43.7418 8.25488L43.6779 8.09351L43.6028 7.93579L43.5278 7.78174L43.4376 7.63159L43.3475 7.48511L43.2461 7.34644L43.1374 7.21118L43.0246 7.07983L42.908 6.95581L42.7805 6.83936L42.653 6.72681L42.5179 6.61792L42.3752 6.52026L42.2288 6.42627L42.0784 6.34009L41.9245 6.26099L41.767 6.1897L41.6017 6.12598L41.4366 6.06958L41.2639 6.02075L41.0912 5.97949L40.9148 5.94946L40.7347 5.927L40.5505 5.91187L40.3666 5.9082L40.1826 5.91187L40.0026 5.927L39.8222 5.94946L39.6459 5.97949L39.4731 6.02075L39.3004 6.06958L39.135 6.12598L38.9737 6.1897L38.816 6.26099L38.662 6.34009L38.512 6.42627L38.3655 6.52026L38.2267 6.61792L38.0912 6.72681L37.9599 6.83936L37.8362 6.95581L37.7159 7.07983L37.6072 7.21118L37.4981 7.34644L37.4006 7.48511L37.3067 7.63159L37.2206 7.78174L37.1415 7.93579L37.0702 8.09351L37.0063 8.25488L36.9502 8.42407L36.9015 8.59277L36.8599 8.76587L36.8301 8.94214L36.8075 9.11865L36.7924 9.30249L36.7886 9.48682L36.7924 9.67065L36.8075 9.85474L36.8301 10.031L36.8599 10.2114L36.9015 10.384L36.9502 10.5532L37.0063 10.7222L37.0702 10.8838L37.1415 11.0452L37.2206 11.1992L37.3067 11.3491L37.4006 11.4956L37.4981 11.6345L37.6072 11.7698L37.7159 11.9011L37.8362 12.0249L37.9599 12.1455L38.0912 12.2581L38.2267 12.3633L38.3655 12.4646L38.512 12.5583L38.662 12.6448L38.816 12.7234L38.9737 12.7952L39.135 12.8586L39.3004 12.9189L39.4731 12.9639L39.6459 13.0051L39.8222 13.0352L40.0026 13.0615L40.1826 13.073L40.3666 13.0764Z" fill="#FBB230" fill-opacity="1.000000" fill-rule="evenodd"/>
			<path id="Vector" d="M35.5722 13.0764L35.7562 13.073L35.9362 13.0615L36.1166 13.0352L36.2928 13.0051L36.4658 12.9639L36.6386 12.9189L36.8036 12.8586L36.965 12.7952L37.1228 12.7234L37.2766 12.6448L37.4268 12.5583L37.5732 12.4646L37.712 12.3633L37.8475 12.2581L37.9788 12.1455L38.1024 12.0249L38.2228 11.9011L38.3318 11.7698L38.4406 11.6345L38.5381 11.4956L38.632 11.3491L38.7181 11.1992L38.7971 11.0452L38.8685 10.8838L38.9323 10.7222L38.9885 10.5532L39.0375 10.384L39.0788 10.2114L39.1086 10.031L39.1311 9.85474L39.1463 9.67065L39.1501 9.48682L39.1463 9.30249L39.1311 9.11865L39.1086 8.94214L39.0788 8.76587L39.0375 8.59277L38.9885 8.42407L38.9323 8.25488L38.8685 8.09351L38.7971 7.93579L38.7181 7.78174L38.632 7.63159L38.5381 7.48511L38.4406 7.34644L38.3318 7.21118L38.2228 7.07983L38.1024 6.95581L37.9788 6.83936L37.8475 6.72681L37.712 6.61792L37.5732 6.52026L37.4268 6.42627L37.2766 6.34009L37.1228 6.26099L36.965 6.1897L36.8036 6.12598L36.6386 6.06958L36.4658 6.02075L36.2928 5.97949L36.1166 5.94946L35.9362 5.927L35.7562 5.91187L35.5722 5.9082L35.3883 5.91187L35.2042 5.927L35.024 5.94946L34.8476 5.97949L34.6751 6.02075L34.5023 6.06958L34.337 6.12598L34.1718 6.1897L34.0143 6.26099L33.8604 6.34009L33.7101 6.42627L33.5639 6.52026L33.4212 6.61792L33.2858 6.72681L33.1583 6.83936L33.0308 6.95581L32.9143 7.07983L32.8014 7.21118L32.6927 7.34644L32.5913 7.48511L32.5013 7.63159L32.411 7.78174L32.336 7.93579L32.2609 8.09351L32.197 8.25488L32.1409 8.42407L32.0918 8.59277L32.0544 8.76587L32.0205 8.94214L31.9982 9.11865L31.9831 9.30249L31.9795 9.48682L31.9831 9.67065L31.9982 9.85474L32.0205 10.031L32.0544 10.2114L32.0918 10.384L32.1409 10.5532L32.197 10.7222L32.2609 10.8838L32.336 11.0452L32.411 11.1992L32.5013 11.3491L32.5913 11.4956L32.6927 11.6345L32.8014 11.7698L32.9143 11.9011L33.0308 12.0249L33.1583 12.1455L33.2858 12.2581L33.4212 12.3633L33.5639 12.4646L33.7101 12.5583L33.8604 12.6448L34.0143 12.7234L34.1718 12.7952L34.337 12.8586L34.5023 12.9189L34.6751 12.9639L34.8476 13.0051L35.024 13.0352L35.2042 13.0615L35.3883 13.073L35.5722 13.0764Z" fill="#EB2230" fill-opacity="1.000000" fill-rule="evenodd"/>
			<path id="Vector" d="M37.5508 7.28247L39.4544 7.28247L39.4544 7.08716L37.716 7.08716L37.5508 7.28247Z" fill="#FBB230" fill-opacity="1.000000" fill-rule="evenodd"/>
			<path id="Vector" d="M37.2661 7.71436L39.455 7.71436L39.455 7.51904L37.3788 7.51904L37.2661 7.71436Z" fill="#FBB230" fill-opacity="1.000000" fill-rule="evenodd"/>
			<path id="Vector" d="M37.0519 8.14648L39.4547 8.14648L39.4547 7.95117L37.1383 7.95117L37.0519 8.14648Z" fill="#FBB230" fill-opacity="1.000000" fill-rule="evenodd"/>
			<path id="Vector" d="M36.9054 8.57788L39.4547 8.57788L39.4547 8.38647L36.9654 8.38647L36.9054 8.57788Z" fill="#FBB230" fill-opacity="1.000000" fill-rule="evenodd"/>
			<path id="Vector" d="M36.9909 10.6736L39.4615 10.6736L39.4615 10.4783L36.9312 10.4783L36.9909 10.6736Z" fill="#FBB230" fill-opacity="1.000000" fill-rule="evenodd"/>
			<path id="Vector" d="M37.1716 11.1055L39.4618 11.1055L39.4618 10.9102L37.0815 10.9102L37.1716 11.1055Z" fill="#FBB230" fill-opacity="1.000000" fill-rule="evenodd"/>
			<path id="Vector" d="M37.4305 11.5371L39.4617 11.5371L39.4617 11.3418L37.3066 11.3418L37.4305 11.5371Z" fill="#FBB230" fill-opacity="1.000000" fill-rule="evenodd"/>
			<path id="Vector" d="M37.784 11.969L39.4621 11.969L39.4621 11.7737L37.6113 11.7737L37.784 11.969Z" fill="#FBB230" fill-opacity="1.000000" fill-rule="evenodd"/>
			<path id="Vector" d="M36.8188 9.01001L39.4544 9.01001L39.4544 8.81836L36.8563 8.81836L36.8188 9.01001Z" fill="#FBB230" fill-opacity="1.000000" fill-rule="evenodd"/>
			<path id="Vector" d="M38.4253 10.2417L39.4315 10.2417L39.4315 10.0464L38.463 10.0464L38.4253 10.2417Z" fill="#FBB230" fill-opacity="1.000000" fill-rule="evenodd"/>
			<path id="Vector" d="M38.5045 9.80957L39.432 9.80957L39.432 9.61426L38.5422 9.61426L38.5045 9.80957Z" fill="#FBB230" fill-opacity="1.000000" fill-rule="evenodd"/>
			<path id="Vector" d="M36.7516 9.61426L37.0143 9.61426L37.0143 9.80957L36.7668 9.80957L36.7516 9.61426Z" fill="#FBB230" fill-opacity="1.000000" fill-rule="evenodd"/>
			<path id="Vector" d="M43.6147 11.5068C43.7086 11.5068 43.7838 11.5857 43.7838 11.6755C43.7838 11.7695 43.7086 11.8447 43.6147 11.8447C43.5208 11.8447 43.4459 11.7695 43.4459 11.6755C43.4459 11.5857 43.5208 11.5068 43.6147 11.5068ZM43.6147 11.5369C43.6937 11.5369 43.7573 11.6006 43.7573 11.6755C43.7573 11.7546 43.6938 11.8186 43.6147 11.8186C43.5398 11.8186 43.4756 11.7546 43.4756 11.6755C43.4756 11.6006 43.5398 11.5369 43.6147 11.5369Z" fill="#FBB230" fill-opacity="1.000000" fill-rule="evenodd"/>
			<path id="Vector" d="M43.5509 11.751L43.5509 11.6084L43.6108 11.6084C43.6257 11.6084 43.637 11.6084 43.6447 11.6123C43.6519 11.616 43.656 11.6196 43.6595 11.6233C43.6632 11.6309 43.667 11.6384 43.667 11.646C43.667 11.6572 43.6632 11.6685 43.6595 11.6724C43.6519 11.6797 43.6409 11.6836 43.6293 11.6873C43.637 11.6909 43.6408 11.6948 43.6447 11.6985C43.6483 11.7021 43.6559 11.7097 43.6595 11.7209L43.6783 11.751L43.6447 11.751L43.6219 11.7173C43.6179 11.7058 43.6107 11.7024 43.607 11.6985C43.607 11.6948 43.6031 11.6948 43.5994 11.6909C43.5957 11.6909 43.5918 11.6909 43.5844 11.6909L43.5805 11.6909L43.5805 11.751L43.5509 11.751ZM43.5807 11.6685L43.5996 11.6685C43.6144 11.6685 43.6219 11.6685 43.6258 11.6648C43.6294 11.6648 43.6335 11.6648 43.6335 11.6609C43.6371 11.6572 43.6371 11.6536 43.6371 11.6497C43.6371 11.6458 43.6371 11.6421 43.6335 11.6384C43.6294 11.6345 43.6258 11.6345 43.6219 11.6309C43.6219 11.6309 43.6145 11.6309 43.6032 11.6309L43.5807 11.6309L43.5807 11.6685L43.5807 11.6685Z" fill="#FBB230" fill-opacity="1.000000" fill-rule="nonzero"/>
			<path id="Vector" d="M43.5765 10.0952C43.6703 10.0952 43.7453 10.1704 43.7453 10.2644C43.7453 10.3582 43.6703 10.4331 43.5765 10.4331C43.4826 10.4331 43.4077 10.3582 43.4077 10.2644C43.4077 10.1704 43.4826 10.0952 43.5765 10.0952ZM43.5765 10.1252C43.6555 10.1252 43.7192 10.189 43.7192 10.2642C43.7192 10.343 43.6556 10.407 43.5765 10.407C43.4975 10.407 43.4338 10.343 43.4338 10.2642C43.4338 10.189 43.4975 10.1252 43.5765 10.1252Z" fill="#FFFFFF" fill-opacity="1.000000" fill-rule="evenodd"/>
			<path id="Vector" d="M43.5127 10.3354L43.5127 10.1963L43.5728 10.1963C43.5878 10.1963 43.5992 10.1963 43.6066 10.2002C43.6104 10.2002 43.6176 10.2075 43.6215 10.2114C43.6253 10.2188 43.6288 10.2263 43.6288 10.2341C43.6288 10.2454 43.6253 10.2527 43.6176 10.26C43.614 10.2676 43.6028 10.2715 43.5915 10.2754C43.5953 10.2788 43.6028 10.2827 43.6066 10.2866C43.6104 10.29 43.614 10.2976 43.6215 10.3088L43.6404 10.3354L43.6066 10.3354L43.5839 10.3054C43.5765 10.2939 43.5727 10.2866 43.5688 10.2866C43.5652 10.2827 43.5652 10.2788 43.5616 10.2788C43.5575 10.2788 43.554 10.2788 43.5465 10.2788L43.5391 10.2788L43.5391 10.3354L43.5127 10.3354ZM43.5391 10.2566L43.5617 10.2566C43.5765 10.2566 43.584 10.2566 43.5878 10.2527C43.5915 10.2527 43.5953 10.2488 43.5953 10.2488C43.5992 10.2454 43.5992 10.2415 43.5992 10.2375C43.5992 10.2341 43.5953 10.2263 43.5953 10.2263C43.5915 10.2227 43.5878 10.2188 43.584 10.2188C43.5803 10.2188 43.5728 10.2188 43.5617 10.2188L43.5392 10.2188L43.5391 10.2566Z" fill="#FFFFFF" fill-opacity="1.000000" fill-rule="nonzero"/>
			<path id="Vector" d="M41.1632 10.3616L41.4072 9.08496L41.7112 9.08496L41.7489 9.21631C41.8051 9.15991 41.8989 9.08496 42.0867 9.08496L41.9928 9.42285C41.9102 9.42285 41.7825 9.40771 41.6776 9.65552C41.5988 9.84351 41.5611 10.155 41.5198 10.3616L41.1632 10.3616Z" fill="#FFFFFF" fill-opacity="1.000000" fill-rule="evenodd"/>
			<path id="Vector" d="M36.5599 8.76587L36.8975 8.76587L36.8225 9.10376L37.0103 9.10376L36.9539 9.36646L36.7851 9.36646L36.6912 9.87354C36.6725 9.96753 36.6912 10.0615 36.879 10.0237L36.8416 10.3054C36.6389 10.4592 36.2331 10.3467 36.2969 9.96753L36.5599 8.76587Z" fill="#FFFFFF" fill-opacity="1.000000" fill-rule="evenodd"/>
			<path id="Vector" d="M38.0657 9.79834C38.1032 9.5918 38.1971 9.08496 37.5927 9.08496C37.0296 9.08496 36.9545 9.64819 36.9545 9.72314C36.9359 9.79834 36.9359 10.3616 37.5365 10.3616C37.6866 10.3616 37.8969 10.3428 37.9908 10.3052L38.047 10.0422C37.9908 10.0613 37.7992 10.0801 37.6491 10.0801C37.5178 10.0801 37.2926 10.0801 37.33 9.7981L38.0657 9.79834Z" fill="#FFFFFF" fill-opacity="1.000000" fill-rule="evenodd"/>
			<path id="Vector" d="M33.9693 10.3616L34.2697 8.82202L33.684 8.82202L33.271 9.76099L33.1958 8.82202L32.6515 8.82202L32.3511 10.3616L32.6889 10.3616L32.9144 9.25391L33.0083 10.3616L33.3274 10.3616L33.8154 9.27271L33.6088 10.3616L33.9693 10.3616Z" fill="#FFFFFF" fill-opacity="1.000000" fill-rule="evenodd"/>
			<path id="Vector" d="M34.363 9.12256L34.3068 9.4043C34.4007 9.4043 34.6259 9.36646 34.7385 9.36646C34.8512 9.36646 35.0013 9.3479 34.9451 9.53564C34.8512 9.53564 34.2316 9.44165 34.1377 9.98633C34.0854 10.3467 34.5133 10.478 34.776 10.3054L34.8136 10.3804L35.1325 10.3804L35.2641 9.68579C35.403 9.05859 34.7986 9.04736 34.363 9.12256Z" fill="#FFFFFF" fill-opacity="1.000000" fill-rule="evenodd"/>
			<path id="Vector" d="M39.9536 9.23535C39.8672 9.18262 39.8146 9.18262 39.7058 9.18262C39.6006 9.18262 39.3528 9.28784 39.3189 9.56934C39.2663 9.92236 39.4954 10.0801 39.8295 9.97485L39.9198 10.2754C39.3492 10.5608 38.8045 10.1177 38.9848 9.42676C39.1311 8.90479 39.822 8.58936 40.1676 9.02124L39.9536 9.23535Z" fill="#FFFFFF" fill-opacity="1.000000" fill-rule="evenodd"/>
			<path id="Vector" d="M42.9307 9.23535C42.0107 8.54419 41.654 10.3618 42.3674 10.3618C42.48 10.3618 42.5929 10.3057 42.6678 10.2678L42.7052 10.3618L43.0808 10.3618L43.3812 8.74707L43.0244 8.74707L42.9307 9.23535Z" fill="#FFFFFF" fill-opacity="1.000000" fill-rule="evenodd"/>
			<path id="Vector" d="M40.2239 9.12256L40.1676 9.4043C40.2612 9.4043 40.4868 9.36646 40.5992 9.36646C40.7121 9.36646 40.8434 9.3479 40.8059 9.53564C40.7121 9.53564 40.0925 9.44165 39.9989 9.98633C39.9608 10.249 40.1864 10.3804 40.3554 10.3804C40.5242 10.3804 40.5806 10.3428 40.6368 10.3054L40.6743 10.3804L40.9937 10.3804L41.1249 9.68579C41.2678 9.05859 40.6631 9.04736 40.2239 9.12256Z" fill="#FFFFFF" fill-opacity="1.000000" fill-rule="evenodd"/>
			<path id="Vector" d="M37.3296 9.55444L37.7614 9.55444C37.8101 9.21265 37.4009 9.28027 37.3296 9.55444Z" fill="#EB2230" fill-opacity="1.000000" fill-rule="evenodd"/>
			<path id="Vector" d="M34.8894 9.79834C34.8329 9.79834 34.7016 9.76099 34.5887 9.83618C34.4764 9.91113 34.4387 10.0425 34.5702 10.0801C34.6826 10.1174 34.8329 10.0425 34.8704 9.92969L34.8894 9.79834Z" fill="#EB2230" fill-opacity="1.000000" fill-rule="evenodd"/>
			<path id="Vector" d="M42.7622 9.44189C42.6496 9.2915 42.4056 9.4043 42.3305 9.68579C42.2743 9.87354 42.3869 10.0051 42.4995 10.0051C42.7361 10.0051 42.8787 9.61841 42.7622 9.44189Z" fill="#FBB230" fill-opacity="1.000000" fill-rule="evenodd"/>
			<path id="Vector" d="M40.769 9.79834C40.7129 9.79834 40.5815 9.76099 40.4686 9.83618C40.3563 9.91113 40.3185 10.0425 40.4501 10.0801C40.5625 10.1174 40.7316 10.0425 40.7503 9.92969L40.769 9.79834Z" fill="#FBB230" fill-opacity="1.000000" fill-rule="evenodd"/>
			<path id="Vector" d="M38.0654 10.3804L38.0844 10.249L38.3097 9.10376L38.6098 9.10376L38.6473 9.23511C38.7037 9.17871 38.7976 9.10376 38.9854 9.10376L38.8914 9.44165C38.8202 9.44165 38.6698 9.42651 38.5572 9.72705C38.4933 9.89966 38.4559 10.1929 38.4221 10.3804L38.0654 10.3804Z" fill="#FFFFFF" fill-opacity="1.000000" fill-rule="evenodd"/>
			<path id="Vector" d="M36.2484 9.41187L36.2332 9.41187L36.2184 9.41187L36.2035 9.40796L36.1884 9.4043L36.1732 9.4043L36.1584 9.40039C36.0907 9.39307 36.0345 9.38916 35.967 9.39307C35.7941 9.40796 35.7192 9.5166 35.8655 9.59937C35.9819 9.66699 36.0722 9.65576 36.1507 9.73096C36.3198 9.88867 36.2333 10.1929 36.0455 10.3091L36.0119 10.3242L35.9745 10.3394L35.9332 10.3503L35.8958 10.3616C35.7154 10.3916 35.4715 10.3843 35.2949 10.3242L35.3437 10.0725C35.4863 10.1025 35.7193 10.1665 35.828 10.0916C35.952 10.0088 35.8393 9.91113 35.749 9.86987L35.7042 9.85498L35.6593 9.83618C35.3024 9.67456 35.3853 9.24268 35.7229 9.15259C35.8581 9.12256 35.9933 9.12256 36.1323 9.13379L36.1584 9.13379C36.1924 9.13745 36.2224 9.14136 36.2523 9.14868L36.2672 9.14868L36.2785 9.15259L36.2898 9.15259L36.2972 9.15649L36.3085 9.15649L36.2484 9.41187Z" fill="#FFFFFF" fill-opacity="1.000000" fill-rule="evenodd"/>
		</g>
	</g>
	<rect id="Без названия (4)" width="20.000000" height="20.000000" transform="translate(56.000000 0.000000)" fill="#FFFFFF" fill-opacity="0"/>
	<g clip-path="url(#clip1_1117)">
		<path id="Vector" d="M76.0002 10C76.0002 15.5229 71.5231 20 66.0002 20C60.4774 20 56.0002 15.5229 56.0002 10C56.0002 4.47705 60.4774 0 66.0002 0C71.5231 0 76.0002 4.47705 76.0002 10Z" fill="#EB0029" fill-opacity="1.000000" fill-rule="evenodd"/>
		<path id="Vector" d="M61.4792 5.35791C61.5709 5.60156 65.4384 15.3032 65.4476 15.3125C65.4581 15.323 70.9863 8.61719 71.0002 8.57715C71.0072 8.55688 69.0788 6.72705 69.0279 6.70557C69.0066 6.69653 67.3097 6.38135 65.2571 6.00562C63.2045 5.62964 61.5105 5.3186 61.4926 5.3147C61.465 5.30835 61.463 5.3147 61.4792 5.35791ZM65.6187 6.6062C67.1064 6.87891 68.3237 7.10791 68.3237 7.11523C68.3237 7.12842 66.3062 8.80737 66.2433 8.84668C66.2138 8.86499 65.9769 8.67627 64.5614 7.5061C62.6872 5.95679 62.8716 6.11133 62.8954 6.1106C62.9055 6.11035 64.131 6.33325 65.6187 6.6062ZM64.2579 7.93628C65.4777 8.94629 65.9835 9.37622 65.9786 9.39868C65.9748 9.4165 65.8538 10.4138 65.7096 11.615C65.5654 12.8164 65.4431 13.8123 65.4379 13.8279C65.4327 13.8435 64.7729 12.2109 63.9716 10.2002C63.1703 8.18945 62.5098 6.53223 62.5038 6.51733C62.4978 6.50269 62.5013 6.49414 62.5116 6.49829C62.5219 6.5022 63.3077 7.14941 64.2579 7.93628ZM69.5065 7.86523C69.8215 8.16333 70.0759 8.4104 70.0719 8.41455C70.0592 8.427 66.9846 8.97949 66.9569 8.97412C66.9335 8.96948 68.8931 7.32349 68.922 7.32349C68.9284 7.32349 69.1915 7.56738 69.5065 7.86523ZM69.9606 9.01709C69.8705 9.14795 65.9795 13.8579 65.9758 13.8403C65.9734 13.8284 66.0865 12.8704 66.2271 11.7112L66.4829 9.604L68.1892 9.29297C69.1277 9.12207 69.9161 8.98145 69.9413 8.98022C69.9831 8.97876 69.9847 8.98193 69.9606 9.01709Z" fill="#FFFFFF" fill-opacity="1.000000" fill-rule="evenodd"/>
	</g>
	<rect id="Без названия (3)" width="20.000000" height="20.000000" transform="translate(84.000000 0.000000)" fill="#FFFFFF" fill-opacity="0"/>
	<g clip-path="url(#clip1_1120)">
		<path id="Vector" d="M94.0002 20C99.5231 20 104 15.5229 104 10C104 4.47705 99.5231 0 94.0002 0C88.4774 0 84.0002 4.47705 84.0002 10C84.0002 15.5229 88.4774 20 94.0002 20Z" fill="#8DC351" fill-opacity="1.000000" fill-rule="nonzero"/>
		<path id="Vector" d="M98.6836 8.30664C98.2103 8.06641 97.6403 8.0166 96.9803 8.15991C97.5503 7.4165 97.5703 6.60327 97.0403 5.72656C96.8503 5.40649 96.6203 5.15991 96.347 4.98975C96.0736 4.81641 95.7736 4.71997 95.437 4.69653C95.1036 4.6731 94.7603 4.69653 94.4169 4.76318C94.0703 4.83325 93.6903 4.94312 93.2736 5.09985L92.3603 3.18652L91.1903 3.74316L92.0769 5.60327C91.8736 5.69995 91.567 5.85327 91.157 6.05981L90.2636 4.18311L89.0936 4.73975L90.007 6.65308C89.8436 6.73657 89.597 6.85645 89.2736 7.01318L87.6603 7.77319L88.2536 9.01978L89.097 8.61646C89.4803 8.43311 89.7903 8.49658 90.0203 8.80981L91.0603 10.9897C91.1103 10.9666 91.1536 10.95 91.187 10.9399L91.067 10.9966L92.5236 14.0498C92.6069 14.3264 92.5203 14.5266 92.2669 14.6465L91.4236 15.0498L91.8503 16.5532L93.3703 15.8298C93.4669 15.7832 93.6069 15.72 93.7903 15.6333C93.9736 15.5498 94.1103 15.4866 94.2036 15.4399L95.127 17.3765L96.2969 16.8198L95.3836 14.9065C95.6003 14.8098 95.9103 14.6665 96.3136 14.4731L97.2236 16.3799L98.3936 15.8232L97.4703 13.8865C97.877 13.6699 98.227 13.4531 98.5203 13.2466C98.8136 13.0366 99.0803 12.8032 99.317 12.5432C99.5536 12.2832 99.727 12.0198 99.8403 11.7466C99.9536 11.4766 100.01 11.1731 100.007 10.8364C100.007 10.5032 99.937 10.1465 99.8003 9.76978C99.5303 9.0332 99.1603 8.54321 98.6836 8.30664ZM91.8369 7.41309C91.8736 7.39648 91.9703 7.34644 92.1336 7.2666C92.2969 7.18652 92.4336 7.11646 92.5403 7.06323C92.6469 7.00977 92.7969 6.94653 92.9903 6.87329C93.1836 6.7998 93.347 6.74658 93.4869 6.70996C93.627 6.6731 93.7836 6.6499 93.9636 6.63647C94.1436 6.62329 94.2969 6.63647 94.4303 6.67651C94.5603 6.71655 94.6903 6.78662 94.8136 6.88647C94.937 6.98657 95.0403 7.11987 95.1203 7.28662C95.187 7.42993 95.227 7.56982 95.2369 7.70654C95.2469 7.84326 95.2236 7.97314 95.1703 8.09644C95.1169 8.21997 95.0569 8.33325 94.9869 8.43652C94.9169 8.53979 94.817 8.64648 94.687 8.75317C94.5536 8.85986 94.437 8.94995 94.3369 9.02319C94.2336 9.09644 94.1036 9.17651 93.9403 9.26318C93.7769 9.34985 93.6536 9.4165 93.567 9.45996C93.4836 9.50317 93.3636 9.55981 93.2136 9.62988C93.0636 9.69995 92.9736 9.73975 92.9503 9.74976L91.8369 7.41309ZM97.4969 11.0632C97.5036 11.2031 97.4903 11.3333 97.4569 11.4565C97.4203 11.5798 97.3569 11.7031 97.2669 11.8264C97.1736 11.9531 97.0803 12.0632 96.9836 12.1565C96.8869 12.2532 96.7636 12.3564 96.6136 12.4631C96.4636 12.5732 96.3303 12.6631 96.2103 12.7332C96.0936 12.8066 95.9503 12.8865 95.7803 12.9766C95.6103 13.0664 95.4803 13.1333 95.3836 13.1799C95.287 13.2266 95.1636 13.2832 95.0169 13.3499C94.8703 13.4165 94.7736 13.46 94.7336 13.4797L93.5103 10.9131C93.5503 10.8933 93.6703 10.8333 93.8669 10.7332C94.0636 10.6333 94.227 10.5532 94.3536 10.4932C94.4803 10.4331 94.657 10.3564 94.8869 10.2666C95.1169 10.1765 95.3136 10.1099 95.4803 10.0664C95.6469 10.0232 95.8336 9.99316 96.0436 9.96997C96.2536 9.94653 96.437 9.95654 96.5903 9.99316C96.7436 10.0298 96.8936 10.1033 97.037 10.21C97.1803 10.3164 97.2969 10.46 97.3836 10.6399C97.4536 10.7832 97.4903 10.9231 97.4969 11.0632Z" fill="#FFFFFF" fill-opacity="1.000000" fill-rule="nonzero"/>
	</g>
	<rect id="binance-usd-busd-logo" width="19.940140" height="20.000004" transform="translate(112.000000 0.000000)" fill="#FFFFFF" fill-opacity="0"/>
	<g clip-path="url(#clip1_1123)">
		<path id="Vector" d="M121.969 0.0419922L124.429 2.56104L118.235 8.75513L115.775 6.29541L121.969 0.0419922Z" fill="#F0B90B" fill-opacity="1.000000" fill-rule="nonzero"/>
		<path id="Vector" d="M124.429 2.56104L118.235 8.75513L115.775 6.29541L121.969 0.0419922L124.429 2.56104Z" stroke="#F0B90B" stroke-opacity="1.000000" stroke-width="0.059273"/>
		<path id="Vector" d="M125.703 3.77637L128.163 6.29541L118.235 16.2239L115.775 13.7639L125.703 3.77637Z" fill="#F0B90B" fill-opacity="1.000000" fill-rule="nonzero"/>
		<path id="Vector" d="M128.163 6.29541L118.235 16.2239L115.775 13.7639L125.703 3.77637L128.163 6.29541Z" stroke="#F0B90B" stroke-opacity="1.000000" stroke-width="0.059273"/>
		<path id="Vector" d="M114.501 7.51074L116.961 10.0298L114.501 12.4897L112.041 10.0298L114.501 7.51074Z" fill="#F0B90B" fill-opacity="1.000000" fill-rule="nonzero"/>
		<path id="Vector" d="M116.961 10.0298L114.501 12.4897L112.041 10.0298L114.501 7.51074L116.961 10.0298Z" stroke="#F0B90B" stroke-opacity="1.000000" stroke-width="0.059273"/>
		<path id="Vector" d="M129.438 7.51074L131.898 10.0298L121.969 19.9583L119.51 17.4983L129.438 7.51074Z" fill="#F0B90B" fill-opacity="1.000000" fill-rule="nonzero"/>
		<path id="Vector" d="M131.898 10.0298L121.969 19.9583L119.51 17.4983L129.438 7.51074L131.898 10.0298Z" stroke="#F0B90B" stroke-opacity="1.000000" stroke-width="0.059273"/>
	</g>
	<rect id="Без названия" width="20.000000" height="20.000000" transform="translate(139.940125 0.000000)" fill="#FFFFFF" fill-opacity="0"/>
	<g clip-path="url(#clip1_1130)">
		<path id="Vector" d="M149.94 20C155.463 20 159.94 15.5229 159.94 10C159.94 4.47705 155.463 0 149.94 0C144.418 0 139.94 4.47705 139.94 10C139.94 15.5229 144.418 20 149.94 20Z" fill="url(#paint_linear_1_1131_0)" fill-opacity="1.000000" fill-rule="nonzero"/>
		<path id="Vector" d="M149.94 12.1199L146.103 10.2966L149.94 17L153.777 10.2966L149.94 12.1199Z" fill="#FFFFFF" fill-opacity="1.000000" fill-rule="nonzero"/>
		<path id="Vector" d="M153.357 8.93677L149.94 3L146.517 8.94336L149.94 7.32007L153.357 8.93677Z" fill="#FFFFFF" fill-opacity="1.000000" fill-rule="nonzero"/>
		<path id="Vector" d="M146.813 9.71338L149.94 11.1934L153.07 9.70996L149.94 8.22998L146.813 9.71338Z" fill="#FFFFFF" fill-opacity="1.000000" fill-rule="nonzero"/>
	</g>
</svg>
