<svg width="24" height="24" viewBox="0 0 24 24" fill="none" xmlns="http://www.w3.org/2000/svg" xmlns:xlink="http://www.w3.org/1999/xlink">
	<desc>
			Created with Pixso.
	</desc>
	<defs>
		<clipPath id="clip1_825">
			<rect id="user" width="24.000000" height="24.000000" fill="white" fill-opacity="0"/>
		</clipPath>
	</defs>
	<rect id="user" width="24.000000" height="24.000000" fill="#FFFFFF" fill-opacity="0"/>
	<g clip-path="url(#clip1_825)">
		<path id="Vector" d="M12 11C9.79086 11 8 9.20923 8 7C8 4.79077 9.79086 3 12 3C14.2091 3 16 4.79077 16 7C16 9.20923 14.2091 11 12 11Z" stroke="#939199" stroke-opacity="1.000000" stroke-width="1.500000" stroke-linejoin="round"/>
		<path id="Vector" d="M6 21L6 19C6 17.9392 6.42142 16.9216 7.17157 16.1716C7.92172 15.4214 8.93915 15 10 15L14 15C15.0609 15 16.0783 15.4214 16.8284 16.1716C17.5786 16.9216 18 17.9392 18 19L18 21" stroke="#939199" stroke-opacity="1.000000" stroke-width="1.500000" stroke-linejoin="round" stroke-linecap="round"/>
	</g>
</svg>
